<svg height="64" viewBox="0 0 64 64" width="64" xmlns="http://www.w3.org/2000/svg"><g fill="none" fill-rule="evenodd" transform="translate(5 5)"><path d="m27 46c-10.494 0-19-8.507-19-19 0-10.494 8.506-19 19-19s19 8.506 19 19c0 10.493-8.506 19-19 19m23.325-15.244 3.675-2.756v-8l-2.822 2.116s-1.991 1.312-2.473-.647c-.301-1.219.373-2.879.373-2.879l1.805-4.224-4-6.929h-.001l-1.386 3.245s-1.068 2.13-2.465.675c-.87-.906-1.116-2.679-1.116-2.679l-.549-4.561-6.929-4 .422 3.502s.141 2.381-1.797 1.818c-1.205-.349-2.306-1.763-2.306-1.763l-2.756-3.674h-8l2.116 2.822s1.313 1.99-.647 2.473c-1.218.299-2.879-.373-2.879-.373l-4.224-1.805-6.928 4 3.244 1.385s2.132 1.068.675 2.467c-.904.867-2.679 1.115-2.679 1.115l-4.561.549-3.999 6.928-.001.002 3.502-.422s2.381-.141 1.819 1.797c-.35 1.205-1.763 2.306-1.763 2.306l-3.675 2.756v8l2.822-2.116s1.991-1.313 2.473.647c.3 1.219-.373 2.879-.373 2.879l-1.805 4.224 4 6.928 1.386-3.244s1.068-2.132 2.466-.675c.868.904 1.116 2.679 1.116 2.679l.549 4.561 6.928 3.999.001.001-.422-3.502s-.141-2.381 1.797-1.818c1.206.349 2.306 1.762 2.306 1.762l2.756 3.675h8 .001l-2.117-2.822s-1.312-1.992.647-2.473c1.22-.301 2.879.373 2.879.373l4.224 1.805 6.928-4 .001-.002-3.245-1.385s-2.13-1.068-.675-2.465c.906-.871 2.679-1.117 2.679-1.117l4.561-.549 4-6.928-3.502.422s-2.381.141-1.819-1.797c.35-1.207 1.763-2.306 1.763-2.306" fill="#5d94c7"/><path d="m27 32c-2.762 0-5-2.238-5-5s2.238-5 5-5 5 2.238 5 5-2.238 5-5 5m0-24c-10.494 0-19 8.506-19 19 0 10.493 8.506 19 19 19s19-8.507 19-19c0-10.494-8.506-19-19-19" fill="#7bbdec"/><g stroke="#414547" stroke-linecap="round" stroke-linejoin="round" stroke-width="2"><path d="m46 27c0 10.493-8.506 19-19 19s-19-8.507-19-19c0-10.494 8.506-19 19-19s19 8.506 19 19z"/><path d="m53.8828 34.4375-4 6.928-4.561.549s-1.773.246-2.679 1.117c-1.455 1.396.676 2.465.676 2.465l3.245 1.384-.001.002-6.929 4-4.224-1.804s-1.659-.674-2.879-.373c-1.959.48-.647 2.472-.647 2.472l2.117 2.822h-.001-8l-2.756-3.674s-1.1-1.413-2.306-1.763c-1.938-.562-1.797 1.818-1.797 1.818l.422 3.502-.001-.001-6.928-3.999-.549-4.56s-.248-1.776-1.116-2.68c-1.398-1.457-2.466.676-2.466.676l-1.386 3.243-4-6.928 1.805-4.223s.673-1.66.373-2.879c-.481-1.96-2.473-.648-2.473-.648l-2.822 2.117v-8.001l3.675-2.755s1.413-1.102 1.763-2.307c.562-1.938-1.819-1.797-1.819-1.797l-3.502.422.001-.002 3.999-6.928 4.561-.549s1.775-.248 2.68-1.115c1.457-1.398-.676-2.467-.676-2.467l-3.243-1.384 6.927-4 4.224 1.804s1.661.672 2.879.373c1.96-.482.647-2.472.647-2.472l-2.116-2.823h8l2.756 3.674s1.102 1.414 2.307 1.764c1.937.563 1.797-1.818 1.797-1.818l-.422-3.502 6.928 4 .549 4.56s.246 1.774 1.116 2.68c1.397 1.455 2.465-.676 2.465-.676l1.386-3.245.001.001 4 6.929-1.805 4.223s-.674 1.66-.373 2.879c.482 1.959 2.473.648 2.473.648l2.822-2.117v8.001l-3.675 2.755s-1.413 1.1-1.762 2.307c-.563 1.937 1.818 1.797 1.818 1.797z"/><path d="m32 27c0 2.762-2.238 5-5 5s-5-2.238-5-5 2.238-5 5-5 5 2.238 5 5z"/></g></g></svg>